<mxfile host="Electron" modified="2024-05-06T09:49:32.574Z" agent="Mozilla/5.0 (Windows NT 10.0; Win64; x64) AppleWebKit/537.36 (KHTML, like Gecko) draw.io/24.2.5 Chrome/120.0.6099.109 Electron/28.1.0 Safari/537.36" etag="F1W8zF5sYfE-E9TxK1Eb" version="24.2.5" type="device">
  <diagram name="Page-1" id="qxVa-CCtCoWQ7zpF4mPt">
    <mxGraphModel dx="2443" dy="605" grid="1" gridSize="10" guides="1" tooltips="1" connect="1" arrows="1" fold="1" page="1" pageScale="1" pageWidth="1169" pageHeight="1654" math="0" shadow="0">
      <root>
        <mxCell id="0" />
        <mxCell id="1" parent="0" />
        <mxCell id="DbdTspc2U4MN1PDJP9v9-4" value="Trip coordinator" style="shape=umlActor;verticalLabelPosition=bottom;verticalAlign=top;html=1;" vertex="1" parent="1">
          <mxGeometry x="-10" y="28" width="100" height="150" as="geometry" />
        </mxCell>
        <mxCell id="DbdTspc2U4MN1PDJP9v9-12" value="Trip manager" style="shape=umlActor;verticalLabelPosition=bottom;verticalAlign=top;html=1;" vertex="1" parent="1">
          <mxGeometry y="350" width="100" height="150" as="geometry" />
        </mxCell>
        <mxCell id="DbdTspc2U4MN1PDJP9v9-13" value="Administrator" style="shape=umlActor;verticalLabelPosition=bottom;verticalAlign=top;html=1;" vertex="1" parent="1">
          <mxGeometry y="560" width="110" height="150" as="geometry" />
        </mxCell>
        <mxCell id="DbdTspc2U4MN1PDJP9v9-26" value="" style="rounded=0;whiteSpace=wrap;html=1;" vertex="1" parent="1">
          <mxGeometry x="760" y="220" width="120" height="60" as="geometry" />
        </mxCell>
        <mxCell id="DbdTspc2U4MN1PDJP9v9-27" value="" style="rounded=0;whiteSpace=wrap;html=1;" vertex="1" parent="1">
          <mxGeometry x="770" y="478" width="120" height="60" as="geometry" />
        </mxCell>
        <mxCell id="DbdTspc2U4MN1PDJP9v9-28" value="" style="rounded=0;whiteSpace=wrap;html=1;" vertex="1" parent="1">
          <mxGeometry x="760" y="340" width="120" height="60" as="geometry" />
        </mxCell>
        <mxCell id="DbdTspc2U4MN1PDJP9v9-29" value="" style="rounded=0;whiteSpace=wrap;html=1;" vertex="1" parent="1">
          <mxGeometry x="760" y="590" width="120" height="60" as="geometry" />
        </mxCell>
        <mxCell id="DbdTspc2U4MN1PDJP9v9-31" value="Trip Management Interface" style="text;html=1;align=center;verticalAlign=middle;resizable=0;points=[];autosize=1;strokeColor=none;fillColor=none;" vertex="1" parent="1">
          <mxGeometry x="735" y="280" width="170" height="30" as="geometry" />
        </mxCell>
        <mxCell id="DbdTspc2U4MN1PDJP9v9-32" value="Traveller Management Interface" style="text;html=1;align=center;verticalAlign=middle;resizable=0;points=[];autosize=1;strokeColor=none;fillColor=none;" vertex="1" parent="1">
          <mxGeometry x="725" y="400" width="190" height="30" as="geometry" />
        </mxCell>
        <mxCell id="DbdTspc2U4MN1PDJP9v9-33" value="Trip Leg Management Interface" style="text;html=1;align=center;verticalAlign=middle;resizable=0;points=[];autosize=1;strokeColor=none;fillColor=none;" vertex="1" parent="1">
          <mxGeometry x="735" y="528" width="190" height="30" as="geometry" />
        </mxCell>
        <mxCell id="DbdTspc2U4MN1PDJP9v9-34" value="Reporting Console" style="text;html=1;align=center;verticalAlign=middle;resizable=0;points=[];autosize=1;strokeColor=none;fillColor=none;" vertex="1" parent="1">
          <mxGeometry x="760" y="650" width="120" height="30" as="geometry" />
        </mxCell>
        <mxCell id="DbdTspc2U4MN1PDJP9v9-35" value="" style="rounded=0;whiteSpace=wrap;html=1;" vertex="1" parent="1">
          <mxGeometry x="420" y="160" width="120" height="60" as="geometry" />
        </mxCell>
        <mxCell id="DbdTspc2U4MN1PDJP9v9-36" value="" style="rounded=0;whiteSpace=wrap;html=1;" vertex="1" parent="1">
          <mxGeometry x="420" y="280" width="120" height="60" as="geometry" />
        </mxCell>
        <mxCell id="DbdTspc2U4MN1PDJP9v9-37" value="" style="rounded=0;whiteSpace=wrap;html=1;" vertex="1" parent="1">
          <mxGeometry x="420" y="395" width="120" height="60" as="geometry" />
        </mxCell>
        <mxCell id="DbdTspc2U4MN1PDJP9v9-38" value="" style="rounded=0;whiteSpace=wrap;html=1;" vertex="1" parent="1">
          <mxGeometry x="430" y="520" width="120" height="60" as="geometry" />
        </mxCell>
        <mxCell id="DbdTspc2U4MN1PDJP9v9-39" value="" style="rounded=0;whiteSpace=wrap;html=1;" vertex="1" parent="1">
          <mxGeometry x="430" y="640" width="120" height="60" as="geometry" />
        </mxCell>
        <mxCell id="DbdTspc2U4MN1PDJP9v9-58" value="" style="edgeStyle=orthogonalEdgeStyle;rounded=0;orthogonalLoop=1;jettySize=auto;html=1;" edge="1" parent="1" source="DbdTspc2U4MN1PDJP9v9-40">
          <mxGeometry relative="1" as="geometry">
            <mxPoint x="480" y="160" as="targetPoint" />
          </mxGeometry>
        </mxCell>
        <mxCell id="DbdTspc2U4MN1PDJP9v9-40" value="Control&amp;nbsp;objects" style="text;html=1;align=center;verticalAlign=middle;resizable=0;points=[];autosize=1;strokeColor=none;fillColor=none;" vertex="1" parent="1">
          <mxGeometry x="430" y="90" width="100" height="30" as="geometry" />
        </mxCell>
        <mxCell id="DbdTspc2U4MN1PDJP9v9-57" value="" style="edgeStyle=orthogonalEdgeStyle;rounded=0;orthogonalLoop=1;jettySize=auto;html=1;" edge="1" parent="1" source="DbdTspc2U4MN1PDJP9v9-45" target="DbdTspc2U4MN1PDJP9v9-26">
          <mxGeometry relative="1" as="geometry">
            <Array as="points">
              <mxPoint x="820" y="130" />
              <mxPoint x="820" y="130" />
            </Array>
          </mxGeometry>
        </mxCell>
        <mxCell id="DbdTspc2U4MN1PDJP9v9-45" value="Boundary&amp;nbsp;objects" style="text;html=1;align=center;verticalAlign=middle;resizable=0;points=[];autosize=1;strokeColor=none;fillColor=none;" vertex="1" parent="1">
          <mxGeometry x="750" y="88" width="120" height="30" as="geometry" />
        </mxCell>
        <mxCell id="DbdTspc2U4MN1PDJP9v9-48" value="Traveller Management Control" style="text;html=1;align=center;verticalAlign=middle;resizable=0;points=[];autosize=1;strokeColor=none;fillColor=none;" vertex="1" parent="1">
          <mxGeometry x="395" y="338" width="190" height="30" as="geometry" />
        </mxCell>
        <mxCell id="DbdTspc2U4MN1PDJP9v9-49" value="Trip Leg Management Control" style="text;html=1;align=center;verticalAlign=middle;resizable=0;points=[];autosize=1;strokeColor=none;fillColor=none;" vertex="1" parent="1">
          <mxGeometry x="390" y="448" width="180" height="30" as="geometry" />
        </mxCell>
        <mxCell id="DbdTspc2U4MN1PDJP9v9-50" value="Payment Processing Control" style="text;html=1;align=center;verticalAlign=middle;resizable=0;points=[];autosize=1;strokeColor=none;fillColor=none;" vertex="1" parent="1">
          <mxGeometry x="390" y="578" width="180" height="30" as="geometry" />
        </mxCell>
        <mxCell id="DbdTspc2U4MN1PDJP9v9-56" value="Reporting Control" style="text;html=1;align=center;verticalAlign=middle;resizable=0;points=[];autosize=1;strokeColor=none;fillColor=none;" vertex="1" parent="1">
          <mxGeometry x="430" y="698" width="120" height="30" as="geometry" />
        </mxCell>
        <mxCell id="DbdTspc2U4MN1PDJP9v9-59" value="Traveller Management Control" style="text;html=1;align=center;verticalAlign=middle;resizable=0;points=[];autosize=1;strokeColor=none;fillColor=none;" vertex="1" parent="1">
          <mxGeometry x="385" y="218" width="190" height="30" as="geometry" />
        </mxCell>
        <mxCell id="DbdTspc2U4MN1PDJP9v9-61" value="payment" style="ellipse;whiteSpace=wrap;html=1;" vertex="1" parent="1">
          <mxGeometry x="795" y="920" width="120" height="80" as="geometry" />
        </mxCell>
        <mxCell id="DbdTspc2U4MN1PDJP9v9-62" value="trip leg" style="ellipse;whiteSpace=wrap;html=1;" vertex="1" parent="1">
          <mxGeometry x="590" y="920" width="120" height="80" as="geometry" />
        </mxCell>
        <mxCell id="DbdTspc2U4MN1PDJP9v9-63" value="Traveller" style="ellipse;whiteSpace=wrap;html=1;" vertex="1" parent="1">
          <mxGeometry x="395" y="920" width="120" height="80" as="geometry" />
        </mxCell>
        <mxCell id="DbdTspc2U4MN1PDJP9v9-64" value="Trip" style="ellipse;whiteSpace=wrap;html=1;" vertex="1" parent="1">
          <mxGeometry x="210" y="910" width="120" height="80" as="geometry" />
        </mxCell>
        <mxCell id="DbdTspc2U4MN1PDJP9v9-66" value="" style="endArrow=classic;html=1;rounded=0;entryX=0.012;entryY=0.637;entryDx=0;entryDy=0;entryPerimeter=0;" edge="1" parent="1">
          <mxGeometry width="50" height="50" relative="1" as="geometry">
            <mxPoint x="48.56" y="80" as="sourcePoint" />
            <mxPoint x="760" y="228.22000000000003" as="targetPoint" />
            <Array as="points">
              <mxPoint x="38.56" y="80" />
              <mxPoint x="245" y="80" />
              <mxPoint x="445" y="80" />
              <mxPoint x="645" y="80" />
              <mxPoint x="720" y="80" />
              <mxPoint x="720" y="228" />
            </Array>
          </mxGeometry>
        </mxCell>
        <mxCell id="DbdTspc2U4MN1PDJP9v9-67" value="" style="endArrow=classic;html=1;rounded=0;" edge="1" parent="1">
          <mxGeometry width="50" height="50" relative="1" as="geometry">
            <mxPoint x="80" y="40" as="sourcePoint" />
            <mxPoint x="915" y="360" as="targetPoint" />
            <Array as="points">
              <mxPoint x="425" y="40" />
              <mxPoint x="705" y="40" />
              <mxPoint x="940" y="40" />
              <mxPoint x="945" y="200" />
              <mxPoint x="945" y="360" />
            </Array>
          </mxGeometry>
        </mxCell>
        <mxCell id="DbdTspc2U4MN1PDJP9v9-68" value="" style="endArrow=classic;html=1;rounded=0;exitX=0.75;exitY=0.1;exitDx=0;exitDy=0;exitPerimeter=0;entryX=0.417;entryY=0.033;entryDx=0;entryDy=0;entryPerimeter=0;" edge="1" parent="1" source="DbdTspc2U4MN1PDJP9v9-4" target="DbdTspc2U4MN1PDJP9v9-27">
          <mxGeometry width="50" height="50" relative="1" as="geometry">
            <mxPoint x="90.00000000000009" y="143.75" as="sourcePoint" />
            <mxPoint x="820" y="440" as="targetPoint" />
            <Array as="points">
              <mxPoint x="160" y="10" />
              <mxPoint x="250" y="10" />
              <mxPoint x="412" y="10" />
              <mxPoint x="640" y="10" />
              <mxPoint x="1000" y="10" />
              <mxPoint x="1000" y="440" />
              <mxPoint x="920" y="440" />
              <mxPoint x="820" y="440" />
            </Array>
          </mxGeometry>
        </mxCell>
        <mxCell id="DbdTspc2U4MN1PDJP9v9-72" value="" style="endArrow=classic;html=1;rounded=0;exitX=0.5;exitY=0.5;exitDx=0;exitDy=0;exitPerimeter=0;entryX=0.151;entryY=-0.06;entryDx=0;entryDy=0;entryPerimeter=0;" edge="1" parent="1" source="DbdTspc2U4MN1PDJP9v9-12" target="DbdTspc2U4MN1PDJP9v9-31">
          <mxGeometry width="50" height="50" relative="1" as="geometry">
            <mxPoint x="570" y="570" as="sourcePoint" />
            <mxPoint x="680" y="280" as="targetPoint" />
            <Array as="points">
              <mxPoint x="210" y="360" />
              <mxPoint x="370" y="360" />
              <mxPoint x="660" y="360" />
              <mxPoint x="720" y="360" />
              <mxPoint x="720" y="320" />
              <mxPoint x="720" y="278" />
            </Array>
          </mxGeometry>
        </mxCell>
        <mxCell id="DbdTspc2U4MN1PDJP9v9-73" value="" style="endArrow=classic;html=1;rounded=0;exitX=0.5;exitY=0.5;exitDx=0;exitDy=0;exitPerimeter=0;entryX=0.005;entryY=0.65;entryDx=0;entryDy=0;entryPerimeter=0;" edge="1" parent="1" source="DbdTspc2U4MN1PDJP9v9-12" target="DbdTspc2U4MN1PDJP9v9-28">
          <mxGeometry width="50" height="50" relative="1" as="geometry">
            <mxPoint x="570" y="470" as="sourcePoint" />
            <mxPoint x="620" y="420" as="targetPoint" />
            <Array as="points">
              <mxPoint x="220" y="380" />
              <mxPoint x="490" y="380" />
            </Array>
          </mxGeometry>
        </mxCell>
        <mxCell id="DbdTspc2U4MN1PDJP9v9-74" value="" style="endArrow=classic;html=1;rounded=0;" edge="1" parent="1">
          <mxGeometry width="50" height="50" relative="1" as="geometry">
            <mxPoint x="110" y="480" as="sourcePoint" />
            <mxPoint x="760" y="520" as="targetPoint" />
            <Array as="points">
              <mxPoint x="220" y="480" />
              <mxPoint x="360" y="480" />
              <mxPoint x="440" y="480" />
              <mxPoint x="480" y="480" />
              <mxPoint x="560" y="480" />
              <mxPoint x="720" y="480" />
              <mxPoint x="720" y="520" />
            </Array>
          </mxGeometry>
        </mxCell>
        <mxCell id="DbdTspc2U4MN1PDJP9v9-76" value="" style="endArrow=classic;html=1;rounded=0;exitX=1;exitY=1;exitDx=0;exitDy=0;exitPerimeter=0;entryX=0;entryY=0.5;entryDx=0;entryDy=0;" edge="1" parent="1" source="DbdTspc2U4MN1PDJP9v9-12" target="DbdTspc2U4MN1PDJP9v9-29">
          <mxGeometry width="50" height="50" relative="1" as="geometry">
            <mxPoint x="200" y="490" as="sourcePoint" />
            <mxPoint x="680" y="640" as="targetPoint" />
            <Array as="points">
              <mxPoint x="440" y="500" />
              <mxPoint x="600" y="500" />
              <mxPoint x="680" y="500" />
              <mxPoint x="680" y="620" />
            </Array>
          </mxGeometry>
        </mxCell>
        <mxCell id="DbdTspc2U4MN1PDJP9v9-78" value="" style="endArrow=classic;html=1;rounded=0;exitX=1;exitY=1;exitDx=0;exitDy=0;exitPerimeter=0;entryX=0.642;entryY=1.027;entryDx=0;entryDy=0;entryPerimeter=0;" edge="1" parent="1" source="DbdTspc2U4MN1PDJP9v9-13" target="DbdTspc2U4MN1PDJP9v9-34">
          <mxGeometry width="50" height="50" relative="1" as="geometry">
            <mxPoint x="570" y="570" as="sourcePoint" />
            <mxPoint x="840" y="760" as="targetPoint" />
            <Array as="points">
              <mxPoint x="120" y="760" />
              <mxPoint x="200" y="760" />
              <mxPoint x="400" y="760" />
              <mxPoint x="837" y="760" />
            </Array>
          </mxGeometry>
        </mxCell>
        <mxCell id="DbdTspc2U4MN1PDJP9v9-79" value="" style="endArrow=classic;html=1;rounded=0;" edge="1" parent="1">
          <mxGeometry width="50" height="50" relative="1" as="geometry">
            <mxPoint x="80" y="730" as="sourcePoint" />
            <mxPoint x="890" y="550" as="targetPoint" />
            <Array as="points">
              <mxPoint x="80" y="800" />
              <mxPoint x="320" y="800" />
              <mxPoint x="440" y="800" />
              <mxPoint x="610" y="800" />
              <mxPoint x="810" y="800" />
              <mxPoint x="890" y="800" />
            </Array>
          </mxGeometry>
        </mxCell>
        <mxCell id="DbdTspc2U4MN1PDJP9v9-80" value="" style="endArrow=classic;html=1;rounded=0;entryX=0.825;entryY=0.08;entryDx=0;entryDy=0;entryPerimeter=0;" edge="1" parent="1">
          <mxGeometry width="50" height="50" relative="1" as="geometry">
            <mxPoint x="40" y="720" as="sourcePoint" />
            <mxPoint x="880" y="390" as="targetPoint" />
            <Array as="points">
              <mxPoint x="40" y="840" />
              <mxPoint x="300" y="840" />
              <mxPoint x="560" y="840" />
              <mxPoint x="1040" y="840" />
              <mxPoint x="1040" y="390" />
            </Array>
          </mxGeometry>
        </mxCell>
        <mxCell id="DbdTspc2U4MN1PDJP9v9-81" value="" style="endArrow=classic;html=1;rounded=0;" edge="1" parent="1">
          <mxGeometry width="50" height="50" relative="1" as="geometry">
            <mxPoint y="720" as="sourcePoint" />
            <mxPoint x="890" y="240" as="targetPoint" />
            <Array as="points">
              <mxPoint y="880" />
              <mxPoint x="80" y="880" />
              <mxPoint x="240" y="880" />
              <mxPoint x="520" y="880" />
              <mxPoint x="850" y="880" />
              <mxPoint x="1080" y="880" />
              <mxPoint x="1080" y="240" />
            </Array>
          </mxGeometry>
        </mxCell>
        <mxCell id="DbdTspc2U4MN1PDJP9v9-83" value="" style="endArrow=classic;html=1;rounded=0;exitX=1.028;exitY=0.627;exitDx=0;exitDy=0;exitPerimeter=0;" edge="1" parent="1" source="DbdTspc2U4MN1PDJP9v9-35">
          <mxGeometry width="50" height="50" relative="1" as="geometry">
            <mxPoint x="560" y="170" as="sourcePoint" />
            <mxPoint x="760" y="240" as="targetPoint" />
            <Array as="points">
              <mxPoint x="600" y="198" />
              <mxPoint x="640" y="198" />
              <mxPoint x="640" y="240" />
              <mxPoint x="720" y="240" />
            </Array>
          </mxGeometry>
        </mxCell>
        <mxCell id="DbdTspc2U4MN1PDJP9v9-85" value="" style="endArrow=classic;html=1;rounded=0;exitX=1.022;exitY=0.627;exitDx=0;exitDy=0;exitPerimeter=0;entryX=0.173;entryY=0;entryDx=0;entryDy=0;entryPerimeter=0;" edge="1" parent="1" source="DbdTspc2U4MN1PDJP9v9-36" target="DbdTspc2U4MN1PDJP9v9-32">
          <mxGeometry width="50" height="50" relative="1" as="geometry">
            <mxPoint x="560" y="470" as="sourcePoint" />
            <mxPoint x="680" y="400" as="targetPoint" />
            <Array as="points">
              <mxPoint x="680" y="318" />
              <mxPoint x="680" y="400" />
            </Array>
          </mxGeometry>
        </mxCell>
        <mxCell id="DbdTspc2U4MN1PDJP9v9-86" value="" style="endArrow=classic;html=1;rounded=0;entryX=0;entryY=0.25;entryDx=0;entryDy=0;" edge="1" parent="1" target="DbdTspc2U4MN1PDJP9v9-27">
          <mxGeometry width="50" height="50" relative="1" as="geometry">
            <mxPoint x="550" y="440" as="sourcePoint" />
            <mxPoint x="750" y="500" as="targetPoint" />
            <Array as="points">
              <mxPoint x="750" y="440" />
              <mxPoint x="750" y="493" />
            </Array>
          </mxGeometry>
        </mxCell>
        <mxCell id="DbdTspc2U4MN1PDJP9v9-87" value="" style="endArrow=classic;html=1;rounded=0;" edge="1" parent="1">
          <mxGeometry width="50" height="50" relative="1" as="geometry">
            <mxPoint x="560" y="680" as="sourcePoint" />
            <mxPoint x="760" y="640" as="targetPoint" />
            <Array as="points">
              <mxPoint x="680" y="680" />
              <mxPoint x="680" y="640" />
            </Array>
          </mxGeometry>
        </mxCell>
        <mxCell id="DbdTspc2U4MN1PDJP9v9-88" value="" style="edgeStyle=elbowEdgeStyle;elbow=horizontal;endArrow=classic;html=1;curved=0;rounded=0;endSize=8;startSize=8;exitX=-0.022;exitY=0.627;exitDx=0;exitDy=0;exitPerimeter=0;" edge="1" parent="1" source="DbdTspc2U4MN1PDJP9v9-38">
          <mxGeometry width="50" height="50" relative="1" as="geometry">
            <mxPoint x="400" y="560" as="sourcePoint" />
            <mxPoint x="760" y="255.5" as="targetPoint" />
            <Array as="points">
              <mxPoint x="270" y="365.5" />
            </Array>
          </mxGeometry>
        </mxCell>
      </root>
    </mxGraphModel>
  </diagram>
</mxfile>
